<svg width="800" height="1000" viewBox="0 0 800 1000" fill="none" xmlns="http://www.w3.org/2000/svg">
  <rect width="800" height="1000" fill="#CFCFCF"/>
  <ellipse cx="400" cy="442" rx="260" ry="340" fill="#D2A17B"/>
  <path d="M275 420C275 315.9 347.4 240 435.5 240H464.5C552.6 240 625 315.9 625 420V494C625 590.7 551.5 668 454 668H346C298.2 668 260 630.2 260 582.8V420H275Z" fill="#1A1A1D"/>
  <path d="M298 425C298 354 352.1 297 423 297H475C544.7 297 600 352.8 600 423V429C600 435.7 594.7 441 588 441H310C303.3 441 298 435.7 298 429V425Z" fill="#1E201E"/>
  <path d="M360 260C337 279 322 310 322 346C322 375 334 402 354 423C359 428 363 434 365 441L331 457C317 415 302 381 296 339C289 284 319 242 360 220L360 260Z" fill="#171717"/>
  <path d="M448 220C483 235 516 260 537 298C551 322 561 344 570 372L635 389C622 302 581 236 510 198L448 220Z" fill="#171717"/>
  <path d="M340 420C340 375.5 376.5 339 421 339H462C506.5 339 543 375.5 543 420V470C543 518.6 503.7 558 455 558H420C371.3 558 332 518.6 332 470V420H340Z" fill="#E7B893"/>
  <path d="M352 416C352 370.1 389.1 332 435 332H448C493.9 332 531 370.1 531 416V430C531 475.9 493.9 513 448 513H435C389.1 513 352 475.9 352 430V416Z" fill="#E7B893"/>
  <path d="M426 295C405 297 390 311 384 330C375 360 389 391 420 403C446 413 468 402 480 382C491 362 494 328 482 309C471 290 448 290 426 295Z" fill="#0A0A0A"/>
  <path d="M356 352C333 365 314 393 305 437C294 489 312 542 340 578C365 610 395 627 422 627C448 627 480 612 508 581C542 544 562 492 553 437C545 394 523 367 499 352C484 344 465 339 442 339H412C383 339 366 343 356 352Z" fill="#EFBF9A"/>
  <path d="M394 370C406 360 421 355 439 355C456 355 470 358 481 368C473 374 466 381 462 392C453 415 454 439 463 472C469 494 479 520 496 538C488 546 475 554 457 560C425 571 393 557 379 530C365 503 363 465 373 433C379 409 386 386 394 370Z" fill="#1A1A1A" fill-opacity="0.18"/>
  <path d="M366 472C368 459 377 447 394 438C407 431 420 429 433 431C447 433 463 440 471 451C478 462 480 480 475 495C469 514 458 527 444 536C430 545 411 548 395 542C380 536 369 522 365 504C362 495 363 483 366 472Z" fill="#EFBF9A"/>
  <path d="M399 373C413 380 432 379 447 372C440 389 428 401 400 404C394 389 396 381 399 373Z" fill="#1C1715" fill-opacity="0.14"/>
  <path d="M323 486C350 476 367 472 387 470C387 504 384 530 377 545C359 525 339 511 323 486Z" fill="#0E0E0E"/>
  <path d="M517 486C494 476 480 472 463 470C463 504 466 528 474 545C492 525 508 511 517 486Z" fill="#0E0E0E"/>
  <path d="M401 541C416 551 425 564 432 583C440 604 450 640 454 684H346C341 646 344 608 354 582C365 556 382 541 401 541Z" fill="#1E1E1E"/>
  <path d="M620 664C646 669 680 680 700 707V1000H520V957C545 919 573 864 595 796C604 768 613 726 620 664Z" fill="#1B1B1E"/>
  <path d="M300 664C260 669 217 679 178 707V1000H300V957C300 918 305 852 330 799C345 770 314 711 300 664Z" fill="#1B1B1E"/>
  <path d="M438 728H552C575 728 594 747 594 770V1000H438V728Z" fill="#0B1A2C"/>
  <path d="M249 728H392V1000H247C212 1000 185 973 185 938V879C185 791 220 752 249 728Z" fill="#0B1A2C"/>
  <path d="M423 450C441 447 448 457 456 468C465 482 485 482 495 471C505 458 508 435 498 417C490 402 473 392 454 394C437 396 424 408 419 430C414 447 418 453 423 450Z" fill="#0A0A0A"/>
  <path d="M279 471C278 462 286 451 304 445C326 437 344 441 353 454C361 466 365 491 357 508C343 534 306 549 284 536C270 528 273 511 279 471Z" fill="#0E0E0E"/>
  <path d="M530 471C531 462 521 451 501 445C478 437 459 441 449 454C440 466 437 491 446 508C460 534 503 549 528 536C544 528 541 511 530 471Z" fill="#0E0E0E"/>
  <path d="M407 470C418 476 429 476 441 470C439 489 435 500 423 515C411 500 408 486 407 470Z" fill="#0D0D0D"/>
  <path d="M388 476C392 492 399 503 415 516C403 523 390 526 377 524C369 511 370 492 388 476Z" fill="#0E0E0E"/>
  <path d="M468 476C464 492 457 503 440 516C452 523 466 526 479 524C487 511 486 492 468 476Z" fill="#0E0E0E"/>
  <path d="M400 494C413 500 427 500 441 494C435 514 425 529 410 528C398 527 393 512 400 494Z" fill="#021728"/>
  <path d="M409 549C426 566 444 568 464 553C469 574 467 598 452 620C431 619 412 609 395 585C394 567 399 559 409 549Z" fill="#0F0F10"/>
  <path d="M343 676L401 703L382 1000H256L343 676Z" fill="#0E1117"/>
  <path d="M456 676L545 703L563 1000H690L611 657L456 676Z" fill="#0E1117"/>
  <path d="M443 624C458 649 469 666 479 700C489 728 500 742 510 760L453 768L402 700L421 664L443 624Z" fill="#101720"/>
  <path d="M314 764C361 752 384 750 421 758C398 793 384 823 374 866C350 855 329 839 311 817C298 801 293 782 314 764Z" fill="#0B1A2C"/>
  <path d="M528 764C481 752 458 750 421 758C444 793 458 823 468 866C492 855 513 839 531 817C544 801 549 782 528 764Z" fill="#0B1A2C"/>
  <path d="M403 636C424 617 434 610 455 612C478 615 493 629 504 648C493 671 471 682 447 683C421 685 405 671 403 636Z" fill="#2B2F35"/>
  <path d="M430 276C452 278 472 292 483 316C492 337 494 364 489 391C472 385 447 378 423 374C402 370 387 363 373 351C379 323 392 296 430 276Z" fill="#1B1B1B"/>
  <circle cx="373" cy="414" r="11" fill="#1E1E1E"/>
  <circle cx="484" cy="414" r="11" fill="#1E1E1E"/>
  <circle cx="378" cy="410" r="4" fill="#F2E7C8"/>
  <circle cx="489" cy="410" r="4" fill="#F2E7C8"/>
  <path d="M402 504C415 510 424 511 437 509C421 527 414 534 406 548C400 531 395 518 402 504Z" fill="#1A1A1E"/>
  <path d="M434 504C449 510 458 511 470 509C456 527 449 534 441 548C435 531 430 518 434 504Z" fill="#1A1A1E"/>
  <path d="M381 545C392 560 405 568 421 572C429 596 438 608 451 621C443 630 434 636 419 641C402 635 390 619 382 595C375 576 376 559 381 545Z" fill="#1A1A1E"/>
  <path d="M466 545C455 560 442 568 426 572C418 596 409 608 396 621C404 630 413 636 428 641C445 635 457 619 465 595C472 576 471 559 466 545Z" fill="#1A1A1E"/>
  <path d="M400 341C385 293 351 257 308 241C301 282 302 325 317 359C333 395 361 415 400 341Z" fill="#111214"/>
  <path d="M464 341C479 293 513 257 556 241C563 282 562 325 547 359C531 395 503 415 464 341Z" fill="#111214"/>
  <path d="M326 260C338 246 354 236 375 231C348 256 332 290 329 332C310 320 297 296 326 260Z" fill="#171819"/>
  <path d="M538 260C526 246 510 236 489 231C516 256 532 290 535 332C554 320 567 296 538 260Z" fill="#171819"/>
  <path d="M471 335C500 323 530 337 546 362C558 381 562 404 557 429C537 419 520 406 507 381C498 365 489 349 471 335Z" fill="#1B1B1B"/>
  <path d="M368 335C339 323 309 337 293 362C281 381 277 404 282 429C302 419 319 406 332 381C341 365 350 349 368 335Z" fill="#1B1B1B"/>
  <path d="M417 119C462 119 486 165 502 212C516 255 520 268 534 314C528 326 506 333 481 327C460 322 435 302 427 286C414 258 404 233 392 179C382 140 394 119 417 119Z" fill="#171717"/>
  <path d="M404 121C363 127 321 149 293 188C274 214 259 252 262 288C271 272 284 263 299 261C342 255 370 286 381 330C392 362 404 382 431 382C445 382 462 374 475 360C469 315 473 270 494 229C511 194 499 129 404 121Z" fill="#171717"/>
</svg>
